<svg width="1200" height="700" viewBox="0 0 1200 700" fill="none" xmlns="http://www.w3.org/2000/svg">
<path d="M120 200C120 160 140 140 180 140H430V220H250C222 220 205.333 232.667 200 258V342C205.333 367.333 222 380 250 380H430V460H180C140 460 120 440 120 400V200Z" fill="#09090B"/>
<path d="M445 460L560 140H660L545 460H445Z" fill="#09090B"/>
<path d="M595 460L690 200H770L675 460H595Z" fill="#09090B"/>
<path d="M1100 460H1012L980 370H880L848 460H760L875 140H985L1100 460ZM896 312H960L928 220L896 312Z" fill="#09090B"/>
</svg>
